<svg width="20" height="20" viewBox="0 0 20 20" fill="none" xmlns="http://www.w3.org/2000/svg">
<g id="iconoir:brain">
<g id="Group">
<path id="Vector" d="M5.83337 11.6667C5.46961 11.6672 5.11035 11.7471 4.78066 11.9008C4.45097 12.0546 4.1588 12.2784 3.92454 12.5567C3.69027 12.835 3.51956 13.161 3.42431 13.5121C3.32907 13.8632 3.31158 14.2308 3.37308 14.5893C3.43458 14.9478 3.57358 15.2886 3.78037 15.5879C3.98717 15.8872 4.25678 16.1377 4.57039 16.322C4.884 16.5063 5.23406 16.62 5.59613 16.655C5.9582 16.6901 6.32356 16.6457 6.66671 16.525" stroke="#FFB21E" stroke-width="1.25" stroke-linecap="round" stroke-linejoin="round"/>
<path id="Vector_2" d="M3.55336 13.0042C3.05467 12.7641 2.6236 12.4036 2.29907 11.9552C1.97454 11.5069 1.76677 10.9848 1.6945 10.436C1.62222 9.88729 1.68773 9.32918 1.8851 8.81209C2.08248 8.295 2.4055 7.83519 2.82503 7.47417M2.85003 7.40667C2.57673 6.99771 2.45695 6.50524 2.51188 6.01644C2.56681 5.52765 2.79292 5.07405 3.15018 4.73596C3.50743 4.39786 3.97279 4.19707 4.46387 4.16914C4.95495 4.14121 5.44007 4.28793 5.83336 4.58333M6.0317 4.6375C5.89876 4.35504 5.831 4.04631 5.83343 3.73414C5.83585 3.42196 5.90841 3.11433 6.04572 2.83397C6.18304 2.55361 6.38161 2.30769 6.62675 2.11439C6.87189 1.9211 7.15734 1.78537 7.462 1.71723C7.76666 1.6491 8.08273 1.6503 8.38686 1.72075C8.69099 1.79121 8.9754 1.92911 9.21906 2.12426C9.46272 2.31942 9.65941 2.56684 9.79459 2.84824C9.92977 3.12964 9.99998 3.43782 10 3.75V16.6667C10 17.1087 9.82443 17.5326 9.51187 17.8452C9.19931 18.1577 8.77539 18.3333 8.33336 18.3333C7.89134 18.3333 7.46741 18.1577 7.15485 17.8452C6.84229 17.5326 6.6667 17.1087 6.6667 16.6667M10 5.83333C10 6.49638 10.2634 7.13226 10.7323 7.6011C11.2011 8.06994 11.837 8.33333 12.5 8.33333M14.1667 11.6667C14.5305 11.6672 14.8897 11.7471 15.2194 11.9008C15.5491 12.0546 15.8413 12.2784 16.0755 12.5567C16.3098 12.8349 16.4805 13.161 16.5758 13.5121C16.671 13.8632 16.6885 14.2308 16.627 14.5893C16.5655 14.9478 16.4265 15.2886 16.2197 15.5879C16.0129 15.8872 15.7433 16.1377 15.4297 16.322C15.1161 16.5063 14.766 16.62 14.4039 16.655C14.0419 16.6901 13.6765 16.6457 13.3334 16.525" stroke="#FFB21E" stroke-width="1.25" stroke-linecap="round" stroke-linejoin="round"/>
<path id="Vector_3" d="M16.4467 13.0042C16.9454 12.7641 17.3764 12.4036 17.701 11.9552C18.0255 11.5069 18.2333 10.9848 18.3055 10.436C18.3778 9.88729 18.3123 9.32918 18.1149 8.81209C17.9176 8.295 17.5945 7.83519 17.175 7.47417M17.15 7.40667C17.4233 6.99771 17.5431 6.50524 17.4881 6.01644C17.4332 5.52765 17.2071 5.07405 16.8499 4.73596C16.4926 4.39786 16.0272 4.19707 15.5362 4.16914C15.0451 4.14121 14.56 4.28793 14.1667 4.58333M10 3.75C10.0001 3.43782 10.0703 3.12964 10.2054 2.84824C10.3406 2.56684 10.5373 2.31942 10.781 2.12426C11.0246 1.92911 11.309 1.79121 11.6132 1.72075C11.9173 1.6503 12.2334 1.6491 12.538 1.71723C12.8427 1.78537 13.1281 1.9211 13.3733 2.11439C13.6184 2.30769 13.817 2.55361 13.9543 2.83397C14.0916 3.11433 14.1642 3.42196 14.1666 3.73414C14.169 4.04631 14.1013 4.35504 13.9683 4.6375M13.3333 16.6667C13.3333 17.1087 13.1577 17.5326 12.8452 17.8452C12.5326 18.1577 12.1087 18.3333 11.6667 18.3333C11.2246 18.3333 10.8007 18.1577 10.4882 17.8452C10.1756 17.5326 10 17.1087 10 16.6667" stroke="#FFB21E" stroke-width="1.25" stroke-linecap="round" stroke-linejoin="round"/>
</g>
</g>
</svg>
